
<global>
amp_veltrack=0
ampeg_attack=0.01
ampeg_release=0.45
</global>

<group>
group_label=PP
lpc_hicc1=42
lpc_locc1=0

<region>
end=96000
hikey=B2
hivel=127
lokey=A#2
lovel=0
lpc=EHwzQ3R5msO2d4ZCI8QVQrI7/EFpSh9B8XO7Pll8isD/wMjA/SK4wBPtj8AsPbi/kMnNPD8ulz/ZgBhAGLMiQLPX+j+t9D4/rOWJPnYmf79mAAnAy5L/v8oIgMAPWrNA
lpc_rms=-42.31
offset=16381
pitch_keycenter=A#2
sample=Trombone_Fall_PP_A#3.opus
</region>

<region>
end=96000
hikey=B3
hivel=127
lokey=A#3
lovel=0
lpc=L/rvQqWHXMNyvHRCKKD3QZomlkGH3g9AiO7vvyFraMDWvjPA5+48wOB0a8AWD5m/vTahPrY5yT/0ay9Ar54GQJCrYr4EdMa/nmLPv7ExAb5rHYA+36yRPjBoHL/xDYE/
lpc_rms=-43.42
offset=11172
pitch_keycenter=A#3
sample=Trombone_Fall_PP_A#4.opus
</region>

<region>
end=96000
hikey=B4
hivel=127
lokey=A#4
lovel=0
lpc=M7gQQymIksN/HOxC59dEQg/gPkFc1lDBoVVAwY3Y/MBqt+W/lTYNQJ2ijkCmYERALUXSv22qcL98BaA+YiuBP71b7r8/aGXAZV2+PwsgCUGZgvJAaL7AwHBX9MFKIsxB
lpc_rms=-35.82
offset=980
pitch_keycenter=A#4
sample=Trombone_Fall_PP_A#5.opus
</region>

<region>
end=96000
hikey=C#3
hivel=127
lokey=C3
lovel=0
lpc=psMPQx2hn8MXOi9DCd1NwS12eUL1jRjCsUGfwMkrgMHQysZAPwBwP9WROkAONIq/9bmSvwG/jj85UkRAt6s+PIrBFz7beeS/7YIuP0dWj7/Qu0e+Te18v6eWrL6kAtY/
lpc_rms=-45.69
offset=15107
pitch_keycenter=C3
sample=Trombone_Fall_PP_C4.opus
</region>

<region>
end=96000
hikey=C#4
hivel=127
lokey=C4
lovel=0
lpc=GF4NQ8LYqcM8Dk9D7VITQRybqUFEZQXCWPIwwMwAVsCxdQ7ASSFWP3V4SMBj5Ys+pGaLQOVEOr7lpDtAC2dMwE5WjUCoTyZARWHYwAC1NMASX8Q+sQ/NQM9Ji8AnHKI/
lpc_rms=-42.93
offset=14056
sample=Trombone_Fall_PP_C5.opus
</region>

<region>
end=96000
hikey=C#5
hivel=127
lokey=C5
lovel=0
lpc=9/Z6Q8IgN8SKyT9EVDe3w6tgZUP99XTDeQTMQo9sGsIYNp1C1GWRwlUVq0LY5GXCMVl9wUMlB8KqrqBC5OnWQdvTkMKzxUNB1oeBwbof5kHJb0HBKLtlQofotcL01ilC
lpc_rms=-33.58
offset=1230
pitch_keycenter=C5
sample=Trombone_Fall_PP_C6.opus
</region>

<region>
end=96000
hikey=D#3
hivel=127
lokey=D3
lovel=0
lpc=zh4TQyJnqcMpG0tD4yGiwVqMg0L0C1nC4gB3P/empsGJfmNBOnGSP+UYKkAYeoxAttyOwCw/m7/jjQtAkokIwNAZBj77vR7Ak0UuQEsMiEC74ojAWsO7QIjyRMEedtZA
lpc_rms=-44.98
offset=16184
pitch_keycenter=D3
sample=Trombone_Fall_PP_D4.opus
</region>

<region>
end=96000
hikey=D#4
hivel=127
lokey=D4
lovel=0
lpc=TU8kQ3dh3sPIxMBDXxjpwobNnUKkrejC4FyWQmRHJsI7kAhBUvWCQc/qNcGKHulAnPc4wXh0lr94q71BOX4YwcxHisGRgOI/angRQRwn9EB7WBTBtV8cQXu6i8EgoxhB
lpc_rms=-39.89
offset=2657
pitch_keycenter=D4
sample=Trombone_Fall_PP_D5.opus
</region>

<region>
end=96000
hikey=D#5
hivel=127
lokey=D5
lovel=0
lpc=ysMRQzO6xsMYJbtDYo4Lw5SWsEKCCgjDEuPjQpJlpcLKeEVCSum+wZYGv0FW7FvBI6IKQQKaNMF+hwxBu/EjQPkN68CGT8zAw9fVwIA9BkI+DY3BzGG2QccHR8JddOhB
lpc_rms=-39.34
offset=16874
pitch_keycenter=D5
sample=Trombone_Fall_PP_D6.opus
</region>

<region>
end=96000
hikey=F2
hivel=127
lokey=E2
lovel=0
lpc=Dp+1QsH5R8MDfuFC6PpRwbgSCELbIZvBOuJCQFX0McHUCb4/L/+UvzXnEL4v1fg/F60dPy/xTD80N8k+MFWvP7PMlT3kFei/hu6WvtoBtb5EFx3An4INQEzhnT/ygz2/
lpc_rms=-49.44
offset=15973
pitch_keycenter=E2
sample=Trombone_Fall_PP_E3.opus
</region>

<region>
end=96000
hikey=F3
hivel=127
lokey=E3
lovel=0
lpc=3fnSQunGVcMK3bNCyjo4QX3Q5EH/djjB4ehowO216sCsVWA+6z3Xv4sNLz8Dyho/alz2vt29Fz95m1BAyFE7Pw3LC78fNSfAYs0Xv6uNOz9UVQM/6soQQA/15cAvho9A
lpc_rms=-48.33
offset=15314
pitch_keycenter=E3
sample=Trombone_Fall_PP_E4.opus
</region>

<region>
end=96000
hikey=F4
hivel=127
lokey=E4
lovel=0
lpc=2hkkQzPK1MPF7aBDRxlEwofRO0Lc157CSbrXQS+EE8HyS2BBkPyAwW1iUsDR8XZApA4UQQTmFMCt/h4/CGHMwOos0UAdsgG+2pB5QPstoL7piy/BfRAcQMZ3RkBUgPY9
lpc_rms=-42.34
offset=17167
pitch_keycenter=E4
sample=Trombone_Fall_PP_E5.opus
</region>

<region>
end=96000
hikey=G2
hivel=127
lokey=F#2
lovel=0
lpc=H+z8QuGmksPDUitDnnkmwSPuTEK1FQrC31iNwCIeWMG9bo5AekuLv3xStj+oHec+bS5gP06opz2z80xAnjoLQDRlN8CDkRs+cORzwJSg3r4yd5Q/vZcuQFNyMT3fBZq/
lpc_rms=-46.17
offset=15554
pitch_keycenter=F#2
sample=Trombone_Fall_PP_F#3.opus
</region>

<region>
end=96000
hikey=G3
hivel=127
lokey=F#3
lovel=0
lpc=ysxIQ2H50sPVoTFDPjYoQm4aQ0IiHnPBOgZ9we9RkMFvJqvA4pShPYv2Nz9Tv55AQkayP4vUpb/mE5i/mLkbQLxCnD+Nna0+e92FQMsRAb9qeGHAWlc9v3UfNMFRMCtB
lpc_rms=-41.94
offset=15256
pitch_keycenter=F#3
sample=Trombone_Fall_PP_F#4.opus
</region>

<region>
end=96000
hikey=G4
hivel=127
lokey=F#4
lovel=0
lpc=jDoVQ5tysMM19EFDV1c7QqJ48kC7GP/Br1eLwVSfrsAU14tAr4CyQIdFTT/TEpw/mFVDv0lcMMBf6xJATV6gP3/EKT50kSDAOWbIvtGCdEBxBhhAkUUmQAxUmsE2TkhB
lpc_rms=-41.20
offset=2135
pitch_keycenter=F#4
sample=Trombone_Fall_PP_F#5.opus
</region>

<region>
end=96000
hikey=A2
hivel=127
lokey=G#2
lovel=0
lpc=SS8XQzx3nsP/OhpDRoiawfnakUL28b/BYxa/v/ZloMFIGYdAbGPtwLzDoUBxymrABbSKPwMcrUBVLIq/dLQhQNi71b8KafU/3QQEP+vy07+YXcC/yI0rwMTH+r+N4o9A
lpc_rms=-45.53
offset=14724
pitch_keycenter=G#2
sample=Trombone_Fall_PP_G#3.opus
</region>

<region>
end=96000
hikey=A3
hivel=127
lokey=G#3
lovel=0
lpc=pnzlQp2kh8MuaU1DCZizwud6oEIn3PTBIumOweg3XMDa4cRB4XekwHSvzcBut8Y+87KcwPkcjb5IfItA9JuHPf5260DE7k7BhXIuQcMG/78dzLXALymJwNtHBUHnV7S/
lpc_rms=-43.77
offset=13268
pitch_keycenter=G#3
sample=Trombone_Fall_PP_G#4.opus
</region>

<region>
end=96000
hikey=A4
hivel=127
lokey=G#4
lovel=0
lpc=LajMQmT3jcNjb4JD+wuqwu/fIkJutIfCsIA7Qv5ScMG7ydJA/k0bwX3KgUD5yGPA2Je9QIvJVr+DAq7A3SFCQXbSxMCaQe69t89nwEzpUD/L92bAOzSbQWv8ucEZ9RhB
lpc_rms=-44.36
offset=15948
pitch_keycenter=G#4
sample=Trombone_Fall_PP_G#5.opus
</region>
</group>

<group>
group_label=MF
lpc_hicc1=84
lpc_locc1=43

<region>
end=96000
hikey=B2
hivel=127
lokey=A#2
lovel=0
lpc=kxCuQksBbsMd7kFDLF0hv3cPH8LJAKLByMYwQQN2KUEa0Ww/P5Q2wONmY8BPjhS+mKdSvmOsIUDwG1NAkByhvxgKRMDClE3Au8JeQF2DiT+PL6Y+eFw2v54MQr+RG9s+
lpc_rms=-32.17
offset=724
pitch_keycenter=A#2
sample=Trombone_Fall_MF_A#3.opus
</region>

<region>
end=96000
hikey=B3
hivel=127
lokey=A#3
lovel=0
lpc=T4j1QiAe+cMCZVtEv9RexOPtFETA8prDTfA9QzvyJ8PRhxBDYIrawkJkjULHQBfBVLttwrEGg0LexK5B6KvwwruWCUM7P7XCvZhGQtrn6sG8+x9B++2mQINO7sBBLitA
lpc_rms=-27.77
offset=331
pitch_keycenter=A#3
sample=Trombone_Fall_MF_A#4.opus
</region>

<region>
end=96000
hikey=B4
hivel=127
lokey=A#4
lovel=0
lpc=2cxKQhQ1JcOAc2FDjXghw/URT0IbJHJBGiGjwc/wEcCY5RlB7SXOP4/x9MCCUadAAZFEwKkHjL97owdBRGsAwdGoTD/4oWdApmdRP9dqvsAlFQTBoDQEQidVCsK+VFNB
lpc_rms=-25.37
offset=123
pitch_keycenter=A#4
sample=Trombone_Fall_MF_A#5.opus
</region>

<region>
end=96000
hikey=C#3
hivel=127
lokey=C3
lovel=0
lpc=Ls2vQjZfdsOUlF1Dm1oUwvuj/8Hhz1K6U4c1QGPLC0DOJ6pA9bzwvzYZgsAEzBY/X6eDv/g20j/j6JdAB6Y5wEI6hMByxlU/KNFQQAZx0L0fGRS/gBqMP1XcX8BxIfI/
lpc_rms=-35.82
offset=635
pitch_keycenter=C3
sample=Trombone_Fall_MF_C4.opus
</region>

<region>
end=96000
hikey=C#4
hivel=127
lokey=C4
lovel=0
lpc=fsLFQndnwcMINyBENGUNxLKReUNdn+W+KLdNwpknf8C18SNCogXSwX9VmMCUONVBbzH5wa7QAEFOkuhBt5gkwkxzlkGnsztBn3jmwe9BgkFd4oRB4ebZwX/GLkG59nu+
lpc_rms=-29.32
offset=262
sample=Trombone_Fall_MF_C5.opus
</region>

<region>
end=96000
hikey=C#5
hivel=127
lokey=C5
lovel=0
lpc=PwZQQkIIRMOD6bFDvU7Xw0hVy0N15KPDTTJsQ/A8GsPJr8BCSDmKwnwugUJK3oLCYUeDQrTykcKdja9CIL+8wishqkIDQITCl6g7Qro868EvrU5BNtSVv3emTcBBxRdA
lpc_rms=-25.80
offset=1073
pitch_keycenter=C5
sample=Trombone_Fall_MF_C6.opus
</region>

<region>
end=96000
hikey=D#3
hivel=127
lokey=D3
lovel=0
lpc=z2/SQqGQl8M5wYdD37XEwR2lSMJCnLTB4rtSQYUAjEFgLRhAg+j8wCQ56sCwjaxAnOhjQPoWhMDAjQ5AcO3VvqxTv796oWdAwvQKv20xyMBOHRxAQP7gQHiR28BkaeU/
lpc_rms=-32.10
offset=881
pitch_keycenter=D3
sample=Trombone_Fall_MF_D4.opus
</region>

<region>
end=96000
hikey=D#4
hivel=127
lokey=D4
lovel=0
lpc=XIj6QqgC68O86jFETckBxF6LCEOf0TBC91j1wVfMUEB3APVAW2i8wWJlJ0FPmdZBRoEHwreGjz8MTQRCt2wAwnjRN797d6JBVMHmwD09fMALUq3ALSN0QYmvRsHfjYBA
lpc_rms=-27.72
offset=468
pitch_keycenter=D4
sample=Trombone_Fall_MF_D5.opus
</region>

<region>
end=96000
hikey=D#5
hivel=127
lokey=D5
lovel=0
lpc=YJaXQhWai8PdgepDhonvw+UmqUPyVDHD/A6lQrWddMIYtZ1Cr/q9wiEwrEKxOnfCVyQ+QhQdN8JugUZCdBtMwoSAKkImDMPBZGDOv3eUFULWTIfCUs2RQqQDQ8ITGIBB
lpc_rms=-23.35
offset=1868
pitch_keycenter=D5
sample=Trombone_Fall_MF_D6.opus
</region>

<region>
end=96000
hikey=F2
hivel=127
lokey=E2
lovel=0
lpc=SCVeQlLPHcNy/hlDkv0Ywp3j1sEZWiBB4XT0QAZugsA+fJ6/4IsGQBQhGT+ayO6/ZXbIv6K98j82ed4/+uFJv0RSZL/ECYC92KKVPgQayL6YFLc+iUEgvotpOT9ieRq/
lpc_rms=-36.44
offset=483
pitch_keycenter=E2
sample=Trombone_Fall_MF_E3.opus
</region>

<region>
end=96000
hikey=F3
hivel=127
lokey=E3
lovel=0
lpc=/O3CQg8micM5t2xDJU2swe3SBcK654bBdtvGQNqtf0CObIdANryLv0I20r8YlItAWIKLwPfY9b+gyMdABBNFwKKVvb/Q+7u+3DwYQBPix78o8QJA1hddQKnpFMHCuJZA
lpc_rms=-33.06
offset=709
pitch_keycenter=E3
sample=Trombone_Fall_MF_E4.opus
</region>

<region>
end=96000
hikey=F4
hivel=127
lokey=E4
lovel=0
lpc=MH2LQqYphcPU+9lDAvXGw66CZ0PWVdnCVkBnQno+BMLkap5Bx+howRQX7UBXMelAxmiiwY2JhEGm0I9ACvDowc26J0K/rPzBaE+vQPU9UEGZoVDBZx2iQBKIo76LtDa+
lpc_rms=-32.04
offset=2336
pitch_keycenter=E4
sample=Trombone_Fall_MF_E5.opus
</region>

<region>
end=96000
hikey=G2
hivel=127
lokey=F#2
lovel=0
lpc=1VvnQYs4ncKaSJ9CH+D+waFybMBJJApBly7Vv8eQcL+jejO/CKOSv6WHIUAp6VU/EDNcwAsNGz+rGSlAwz+4vx2Qbr6msYM/r7CVv3g99L3diq0/0fOAv/MRDb65tKQ+
lpc_rms=-36.44
offset=854
pitch_keycenter=F#2
sample=Trombone_Fall_MF_F#3.opus
</region>

<region>
end=96000
hikey=G3
hivel=127
lokey=F#3
lovel=0
lpc=gIsSQ7n+AsRoNjVEC4vzw8/wV0P9XRjDFCPKQmvt78EIAeNBgIIawr3Oi0A/SQ5C+GkhwgzcNEGpzdpBZFBFwgZNDUJgE0G/9iRJwdJ0H0COy+Q/w48qQBxUJsDDY4M+
lpc_rms=-30.92
offset=507
pitch_keycenter=F#3
sample=Trombone_Fall_MF_F#4.opus
</region>

<region>
end=96000
hikey=G4
hivel=127
lokey=F#4
lovel=0
lpc=HqlQQlMnLcN/iGZDR2IMwyWIKUGOMBtCy9l8weWkGMG/RBdB0TApv5UuesBytHtAVMrtPgbUY8DQ+to/HKMjvkZcmLsKhCM6+ZzjP9q8oz1rX9vAdtEiQVmD38AGVgxA
lpc_rms=-28.96
offset=1072
pitch_keycenter=F#4
sample=Trombone_Fall_MF_F#5.opus
</region>

<region>
end=96000
hikey=A2
hivel=127
lokey=G#2
lovel=0
lpc=boiIQlY9U8PACHBDWh7HwleiksGk261BLb7EQP4Rv8Bcv0DAaoYCQGtKJT8WGr+/AOYrPlfKfj958uo/k+nSvyJQ4r87OlQ/DJ0bQJgjGcBfX7y/JAyQQERIcsCZpaQ/
lpc_rms=-33.15
offset=945
pitch_keycenter=G#2
sample=Trombone_Fall_MF_G#3.opus
</region>

<region>
end=96000
hikey=A3
hivel=127
lokey=G#3
lovel=0
lpc=D2/XQrkAjcPgYk1DgA83QS3E0sFcI8jB3vg5QF+FAUHjbxnAkoOGwO1Srz8lb+VAHZ9VwDj6q7/TuOVA1COHwOrWZ8D9Q12+gEgYPjaSAkCTpxbAXfUKPyTyzEC1053A
lpc_rms=-29.91
offset=439
pitch_keycenter=G#3
sample=Trombone_Fall_MF_G#4.opus
</region>

<region>
end=96000
hikey=A4
hivel=127
lokey=G#4
lovel=0
lpc=LMaFQopDgcM31thD8mfRw4k6ikMH6ijDxcQKQ/UFAsO+EsxCbkmCwrDcGkK0F7XB2MFDQUyNVcHnsM5BQ3Xxwa2UrEHtrJzBoTfpQU2Y7MFvNh5BzFEuQXPYTcFCR4pA
lpc_rms=-30.96
pitch_keycenter=G#4
sample=Trombone_Fall_MF_G#5.opus
</region>
</group>

<group>
group_label=FF
lpc_hicc1=127
lpc_locc1=85

<region>
end=96000
hikey=B2
hivel=127
lokey=A#2
lovel=0
lpc=qUaWQCklFcErXQ1Bw1/mwFaNtkC8pH/AV5EzQO/qCMDfptg/lkKvvy08iD9rU0u/zQ7fPlkBGL/XB2Q/9Vpzv68UpD/9p7e/PC6cP1aFZL/lMt4+z5gnvouAMz3kuxa9
lpc_rms=-26.76
offset=346
pitch_keycenter=A#2
sample=Trombone_Fall_FF_A#3.opus
</region>

<region>
end=96000
hikey=B3
hivel=127
lokey=A#3
lovel=0
lpc=6WZvQEcjt8BAhW9AgV85wPp1E0DucbG/fRRpP4MMIL+2sSc/g9cqv3oE9D58+7C9b0KgvnTsNT1ylJo+21fSvR7RtD4Jq/6+cDvpPqEo/r71aO0+r9AWvppSdz7LF2S+
lpc_rms=-21.77
offset=1982
pitch_keycenter=A#3
sample=Trombone_Fall_FF_A#4.opus
</region>

<region>
end=96000
hikey=B4
hivel=127
lokey=A#4
lovel=0
lpc=X0mAQI/U6sC1r8BAxFZ+wKXhLUBxpI+/K8DuPhFAEb9UDt89bpUSPwd8A79iqQw/F/QnvyRtsj2j+QU/Ucnzvu55kD/VVNu/uYDnP/iyo7+yFu8+xr6VvvxIrz6GXKS9
lpc_rms=-19.94
offset=941
pitch_keycenter=A#4
sample=Trombone_Fall_FF_A#5.opus
</region>

<region>
end=96000
hikey=C#3
hivel=127
lokey=C3
lovel=0
lpc=XxUcQH39VMB4xP8/0LCovy4wUj/IQNm+X9WdPgL0Qb5i5KM9u3Acvl4XSz20WKo9AmdUvdMrrb2RjxY+OGSFvjpixj7M4ae+vsqBPnqcBL5BNsS8yte/PX3Pyr1+JAs8
lpc_rms=-29.49
offset=294
pitch_keycenter=C3
sample=Trombone_Fall_FF_C4.opus
</region>

<region>
end=96000
hikey=C#4
hivel=127
lokey=C4
lovel=0
lpc=INlOQGUNoMAdMl9AxDgnwE97CkDDEYS/lHqiPimdUb+Ay7A/eq2Fvx1ruD7Hftu9sGsMvhQHUD5qqiY+dq97vu1LOz8wtkW/zpEkP1kkG7/NfKs+AqP6vQ82ljqpKdQ9
lpc_rms=-24.38
offset=238
sample=Trombone_Fall_FF_C5.opus
</region>

<region>
end=96000
hikey=C#5
hivel=127
lokey=C5
lovel=0
lpc=arRXQM0Zr8DdcYBAdsclwLJS8j8pU4q/Kf9SP0GtU79KG5U/BRKFv8k9ST+lvDm+WH5dvp2VLz2/jIM+wfwEv82nPT8KYwC/vQRuPm+IOz4eOdG+Z6FUPzkCYr+J3+8+
lpc_rms=-22.61
offset=896
pitch_keycenter=C5
sample=Trombone_Fall_FF_C6.opus
</region>

<region>
end=96000
hikey=D#3
hivel=127
lokey=D3
lovel=0
lpc=FqBUQG8Do8Ao0k9AKqoSwGuq2z//uEu/FSMeP6etFr9lL8I+VNK/vmFzdD5hThC+FEFbPSO3Xb6RaOI+lsjMvtuE/j52hAm/1QOiPhjG1zyrjoS+sxJiPugDDL47tCk+
lpc_rms=-26.20
offset=774
pitch_keycenter=D3
sample=Trombone_Fall_FF_D4.opus
</region>

<region>
end=96000
hikey=D#4
hivel=127
lokey=D4
lovel=0
lpc=6jJYQGLrrsBpPmpAxQYZwFIO/D9yaY2/WLtkP1Ojkb/Jf2Y/TdrMvkZJ4D4rDPa+K5BGPjlYv75D42E/6RsuvzMDAj8W4mu/KPE1P+dP070Kzac+ym4QvwCVcrzRAZ8+
lpc_rms=-24.26
offset=362
pitch_keycenter=D4
sample=Trombone_Fall_FF_D5.opus
</region>

<region>
end=96000
hikey=D#5
hivel=127
lokey=D5
lovel=0
lpc=BvC8QLrEQ8E5sUNBx4Iiwaf8C0FKMtLAhoytQMLNg8BuckFAwsdAwJY+H0Ai+sO/8KF5P7RZaL9lLgFAWU8ywHn7XUACG3zAMrxEQIO1p78UTxY/dpfFPuJ9Yr/Kyxc/
lpc_rms=-21.50
offset=500
pitch_keycenter=D5
sample=Trombone_Fall_FF_D6.opus
</region>

<region>
end=96000
hikey=F2
hivel=127
lokey=E2
lovel=0
lpc=NA9+QB5z48B8HL1AZRuSwKsUZ0C/Ix7AU+HaP5cYpb9UC2I/3MAhv4cA7j6LrEG+D29nPVMli766osQ+eyjuvkByST82UVe/LTNIP8E9Ib81st4+jTaMvhGZNj5P9we9
lpc_rms=-30.26
offset=1319
pitch_keycenter=E2
sample=Trombone_Fall_FF_E3.opus
</region>

<region>
end=96000
hikey=F3
hivel=127
lokey=E3
lovel=0
lpc=ZbpdQP9CwMA8hZlAiRZbwAxyKkAT/+i/U8WYP+1rUb90fDE/WNy8vt9Vij6wnZW+hxYqPqcak70+5RY+Z72Qvs2JJT9tSFG/YHVNPxhPGr+GmOw+xeCovthnxD0MtBM9
lpc_rms=-27.88
offset=85
pitch_keycenter=E3
sample=Trombone_Fall_FF_E4.opus
</region>

<region>
end=96000
hikey=F4
hivel=127
lokey=E4
lovel=0
lpc=cO6eQI77GsHLeAlB1vbGwC/AskBc/ZXA34VkQE3jFsDC79w/MT67v1WfwD+S+C6/+RJDvnQkpT4zO20+b/M2vno6qj4p7gO/30hOPpX/lD7TS5++phnCPixsmL4ftlk+
lpc_rms=-24.06
offset=512
pitch_keycenter=E4
sample=Trombone_Fall_FF_E5.opus
</region>

<region>
end=96000
hikey=G2
hivel=127
lokey=F#2
lovel=0
lpc=YebtQOAMiMGMlIxBqfNcwXoZLEFCygLBGxvEQNjPjsCxd2NASwREwFF0E0AmL8S/r+xlPwBli79qiNs/9jD+vxBm/j+Pcc+/rECbP/D3X7+AFPw+HTWGvs8/zT2h0nK8
lpc_rms=-29.74
offset=26
pitch_keycenter=F#2
sample=Trombone_Fall_FF_F#3.opus
</region>

<region>
end=96000
hikey=G3
hivel=127
lokey=F#3
lovel=0
lpc=2F1tQLdc0sDBVaRAXjNZwKQrJkDnvPG/w8acP1BSNL/XkAg/Bmz8vpTMtz7HEJC+ZRI1PtB2nb6p6vk+JtNCvxYJdT9fF0S//qTwPpQ3lryYL7W+ZdZ1PgawFb5W44A9
lpc_rms=-25.22
offset=1321
pitch_keycenter=F#3
sample=Trombone_Fall_FF_F#4.opus
</region>

<region>
end=96000
hikey=G4
hivel=127
lokey=F#4
lovel=0
lpc=aTCRQFYeE8F51RRBsdH3wMTNwEDYpInAXP8/QIoSBMAhYfk/consv6tp5z+KYZ2/bzYCP+Axk75gaNc+jQCzvmlm5z71Sk+/qbNzP1JyCL/X5ls+hOKDvlQNuz6F2OO9
lpc_rms=-23.50
offset=545
pitch_keycenter=F#4
sample=Trombone_Fall_FF_F#5.opus
</region>

<region>
end=96000
hikey=A2
hivel=127
lokey=G#2
lovel=0
lpc=TDaGQL297sDy0cFADa6UwEzTXkAJRBLAC87aP0YcnL/IsHE/tIVov3KZQT8ykBO/G9ehPpgdvL7cbQ8/2HkLvzuLQT8+YEi/p/znPtO9eL7huPa8bK0APmvlOb4v2Qo+
lpc_rms=-27.95
offset=451
pitch_keycenter=G#2
sample=Trombone_Fall_FF_G#3.opus
</region>

<region>
end=96000
hikey=A3
hivel=127
lokey=G#3
lovel=0
lpc=tx5SQD5CpcCsfmxApZc6wPwPFkDz6dq/XnWYP+AYUb8kJT8/eI+RvqEjQrzdbKE6VHmsPR0PBr8WJFs/2XRuv0YEgz+b8ky/IZwAP9wPur41lGE+ginDvYi9sL174r89
lpc_rms=-24.15
offset=455
pitch_keycenter=G#3
sample=Trombone_Fall_FF_G#4.opus
</region>

<region>
end=96000
hikey=A4
hivel=127
lokey=G#4
lovel=0
lpc=3amuQPPpOsFMTjlBtlMKwcDr0UBtCo7Axk4iQHdnkr/gJmk/eCJRvyyyID8pGO++lEb2PtQ3Lr+2WUo/XXk9v6XWpj8UYLO/ZuJCP01J077Kwz8+mDbMPl5kMr9tcuk+
lpc_rms=-22.53
offset=525
pitch_keycenter=G#4
sample=Trombone_Fall_FF_G#5.opus
</region>
</group>